<svg width="14" height="14" fill="none" xmlns="http://www.w3.org/2000/svg"><g clip-path="url(#a)"><path fill="#fff" d="M-349-1370H671V556H-349z"/><path stroke="#DDDADA" d="M-68.5-213.5h219v303h-219z"/><path d="m11.393 5.148-2.704-.39-1.208-2.431a.595.595 0 0 0-1.062 0L5.21 4.757l-2.704.391a.586.586 0 0 0-.328 1.003l1.956 1.89-.462 2.671a.59.59 0 0 0 .858.62L6.95 10.07l2.419 1.261c.429.224.941-.136.858-.618l-.462-2.671L11.72 6.15a.586.586 0 0 0-.327-1.003ZM8.812 7.733l.438 2.54-2.3-1.198-2.3 1.199.438-2.54-1.861-1.8 2.572-.37L6.95 3.25l1.151 2.313 2.572.371-1.861 1.8Z" fill="#FFD168"/></g><defs><clipPath id="a"><path fill="#fff" transform="translate(-349 -1370)" d="M0 0h1020v1926H0z"/></clipPath></defs></svg>