<svg width="14" height="14" fill="none" xmlns="http://www.w3.org/2000/svg"><g clip-path="url(#a)"><path fill="#fff" d="M-335-1370H685V556H-335z"/><path stroke="#DDDADA" d="M-54.5-213.5h219v303h-219z"/><path d="m11.642 5.138-2.976-.432-1.33-2.697a.377.377 0 0 0-.673 0l-1.33 2.697-2.975.432a.374.374 0 0 0-.207.64l2.152 2.099-.508 2.964a.374.374 0 0 0 .543.395L7 9.836l2.661 1.4a.374.374 0 0 0 .544-.395l-.509-2.964 2.153-2.099a.375.375 0 0 0-.207-.64Z" fill="#FFD168"/></g><defs><clipPath id="a"><path fill="#fff" transform="translate(-335 -1370)" d="M0 0h1020v1926H0z"/></clipPath></defs></svg>